# xmcd
#
# Track frame offsets:
#	183
#	11770
#	22308
#	36145
#	50270
#	59283
#	71720
#	82070
#	98858
#	109708
#	121120
#	133423
#	146145
#	159295
#	170058
#	185133
#	198608
#	208820
#	218803
#	230595
#	241838
#	252813
#	265380
#	278320
#	287595
#
# Disc length: 4033 seconds
#
# Revision: 0
# Processed by: cddbd v1.5PL3 Copyright (c) Steve Scherf et al.
# Submitted via: audiograbber 1.80
#
DISCID=7f0fbf19
DTITLE=Claude François - 124 succès, ³124 souvenirs
DYEAR=1900
DGENRE=blues
TTITLE0=Sois fier
TTITLE1=Je devrais dormir
TTITLE2=Je t'aime trop, toi
TTITLE3=N'essaie pas de me mentir
TTITLE4=Silhouette
TTITLE5=Quand un bateau passe
TTITLE6=Même si tu revenais
TTITLE7=Ce monde absurde
TTITLE8=Tout le monde rit d'un clown
TTITLE9=Le jouet extraordinaire
TTITLE10=C'est moi, c'est moi
TTITLE11=Le temps des pleures
TTITLE12=mais combien de temps
TTITLE13=J'ai joué et puis j'ai perdu
TTITLE14=Je tiens un tigre par la queue
TTITLE15=J'attendrai
TTITLE16=Miss Felicity Gray
TTITLE17=Les petites choses
TTITLE18=Amoueurx du monde entier
TTITLE19=Sur le banc 21
TTITLE20=Winchester Cathédral
TTITLE21=Toute la vie
TTITLE22=Pardon
TTITLE23=Ce soir je vais boire
TTITLE24=Mais quand, le matin
EXTD=Selection du Reader's Digest, Disque 2
EXTT0=
EXTT1=
EXTT2=
EXTT3=
EXTT4=
EXTT5=
EXTT6=
EXTT7=
EXTT8=
EXTT9=
EXTT10=
EXTT11=
EXTT12=
EXTT13=
EXTT14=
EXTT15=
EXTT16=
EXTT17=
EXTT18=
EXTT19=
EXTT20=
EXTT21=
EXTT22=
EXTT23=
EXTT24=
PLAYORDER=
